<svg viewBox="0 0 29 23" fill="none" xmlns="http://www.w3.org/2000/svg">
    <path
        d="M14.5365 22.9955L15.868 22.5184L17.191 22.995L17.1969 22.9975H22.105C22.1351 22.999 22.1648 22.9999 22.1959 22.9999C22.3519 22.9999 22.508 22.999 22.6636 22.9975H23.596L29.0088 22.9985L19.368 9.18056L13.1724 15.0828L18.5536 22.7046H17.1925L15.8719 21.6853L14.5246 22.7061H13.1719V15.0828V11.2405L17.753 6.8663V6.86531L21.6803 3.12476C21.7015 3.10451 21.7242 3.08476 21.7474 3.06648C23.5007 1.6718 25.1472 0.51714 26.9044 0.293912H26.9439V0.00154264H20.2258V0.292924H20.2629C21.5929 0.442072 22.43 0.954212 22.3707 1.76366C22.3554 1.97355 22.2581 2.16913 22.106 2.31432L17.5832 6.62134L13.1719 0.299838V0.292924H16.91V6.10352e-05H0.0044448V0.292924H3.62005V22.7051H0V22.998H14.5212"
        fill="#403A34"></path>
</svg>